<svg xmlns="http://www.w3.org/2000/svg"><symbol fill="currentColor" viewBox="0 0 1792 1792" id="leplayer-icon-arrows-alt"><title>arrows-alt</title><path d="M1411 541l-355 355 355 355 144-144q29-31 70-14 39 17 39 59v448q0 26-19 45t-45 19h-448q-42 0-59-40-17-39 14-69l144-144-355-355-355 355 144 144q31 30 14 69-17 40-59 40h-448q-26 0-45-19t-19-45v-448q0-42 40-59 39-17 69 14l144 144 355-355-355-355-144 144q-19 19-45 19-12 0-24-5-40-17-40-59v-448q0-26 19-45t45-19h448q42 0 59 40 17 39-14 69l-144 144 355 355 355-355-144-144q-31-30-14-69 17-40 59-40h448q26 0 45 19t19 45v448q0 42-39 59-13 5-25 5-26 0-45-19z"/></symbol><symbol fill="currentColor" viewBox="0 0 1792 1792" id="leplayer-icon-backward"><title>backward</title><path d="M1683 141q19-19 32-13t13 32v1472q0 26-13 32t-32-13l-710-710q-8-9-13-19v710q0 26-13 32t-32-13l-710-710q-19-19-19-45t19-45l710-710q19-19 32-13t13 32v710q5-11 13-19z"/></symbol><symbol fill="currentColor" viewBox="0 0 1792 1792" id="leplayer-icon-bullseye"><title>bullseye</title><path d="M1152 896q0 106-75 181t-181 75-181-75-75-181 75-181 181-75 181 75 75 181zm128 0q0-159-112.5-271.5t-271.5-112.5-271.5 112.5-112.5 271.5 112.5 271.5 271.5 112.5 271.5-112.5 112.5-271.5zm128 0q0 212-150 362t-362 150-362-150-150-362 150-362 362-150 362 150 150 362zm128 0q0-130-51-248.5t-136.5-204-204-136.5-248.5-51-248.5 51-204 136.5-136.5 204-51 248.5 51 248.5 136.5 204 204 136.5 248.5 51 248.5-51 204-136.5 136.5-204 51-248.5zm128 0q0 209-103 385.5t-279.5 279.5-385.5 103-385.5-103-279.5-279.5-103-385.5 103-385.5 279.5-279.5 385.5-103 385.5 103 279.5 279.5 103 385.5z"/></symbol><symbol fill="currentColor" viewBox="0 0 400 380" id="leplayer-icon-cat"><title>cat</title> <path d="M 151.34904,307.20455 L 264.34904,307.20455 C 264.34904,291.14096 263.2021,287.95455 236.59904,287.95455 C 240.84904,275.20455 258.12424,244.35808 267.72404,244.35808 C 276.21707,244.35808 286.34904,244.82592 286.34904,264.20455 C 286.34904,286.20455 323.37171,321.67547 332.34904,307.20455 C 345.72769,285.63897 309.34904,292.21514 309.34904,240.20455 C 309.34904,169.05135 350.87417,179.18071 350.87417,139.20455 C 350.87417,119.20455 345.34904,116.50374 345.34904,102.20455 C 345.34904,83.30695 361.99717,84.403577 358.75805,68.734879 C 356.52061,57.911656 354.76962,49.23199 353.46516,36.143889 C 352.53959,26.857305 352.24452,16.959398 342.59855,17.357382 C 331.26505,17.824992 326.96549,37.77419 309.34904,39.204549 C 291.76851,40.631991 276.77834,24.238028 269.97404,26.579549 C 263.22709,28.901334 265.34904,47.204549 269.34904,60.204549 C 275.63588,80.636771 289.34904,107.20455 264.34904,111.20455 C 239.34904,115.20455 196.34904,119.20455 165.34904,160.20455 C 134.34904,201.20455 135.49342,249.3212 123.34904,264.20455 C 82.590696,314.15529 40.823919,293.64625 40.823919,335.20455 C 40.823919,353.81019 72.349045,367.20455 77.349045,361.20455 C 82.349045,355.20455 34.863764,337.32587 87.995492,316.20455 C 133.38711,298.16014 137.43914,294.47663 151.34904,307.20455 z " style="fill-opacity:1;fill-rule:evenodd;stroke:none;stroke-width:1px;stroke-linecap:butt;stroke-linejoin:miter;stroke-opacity:1"/> </symbol><symbol fill="currentColor" viewBox="0 0 1792 1792" id="leplayer-icon-commenting-o"><title>commenting-o</title><path d="M640 896q0 53-37.5 90.5t-90.5 37.5-90.5-37.5-37.5-90.5 37.5-90.5 90.5-37.5 90.5 37.5 37.5 90.5zm384 0q0 53-37.5 90.5t-90.5 37.5-90.5-37.5-37.5-90.5 37.5-90.5 90.5-37.5 90.5 37.5 37.5 90.5zm384 0q0 53-37.5 90.5t-90.5 37.5-90.5-37.5-37.5-90.5 37.5-90.5 90.5-37.5 90.5 37.5 37.5 90.5zm-512-512q-204 0-381.5 69.5t-282 187.5-104.5 255q0 112 71.5 213.5t201.5 175.5l87 50-27 96q-24 91-70 172 152-63 275-171l43-38 57 6q69 8 130 8 204 0 381.5-69.5t282-187.5 104.5-255-104.5-255-282-187.5-381.5-69.5zm896 512q0 174-120 321.5t-326 233-450 85.5q-70 0-145-8-198 175-460 242-49 14-114 22h-5q-15 0-27-10.5t-16-27.5v-1q-3-4-.5-12t2-10 4.5-9.5l6-9 7-8.5 8-9q7-8 31-34.5t34.5-38 31-39.5 32.5-51 27-59 26-76q-157-89-247.5-220t-90.5-281q0-130 71-248.5t191-204.5 286-136.5 348-50.5 348 50.5 286 136.5 191 204.5 71 248.5z"/></symbol><symbol fill="currentColor" viewBox="0 0 1792 1792" id="leplayer-icon-download"><title>download</title><path d="M1344 1344q0-26-19-45t-45-19-45 19-19 45 19 45 45 19 45-19 19-45zm256 0q0-26-19-45t-45-19-45 19-19 45 19 45 45 19 45-19 19-45zm128-224v320q0 40-28 68t-68 28h-1472q-40 0-68-28t-28-68v-320q0-40 28-68t68-28h465l135 136q58 56 136 56t136-56l136-136h464q40 0 68 28t28 68zm-325-569q17 41-14 70l-448 448q-18 19-45 19t-45-19l-448-448q-31-29-14-70 17-39 59-39h256v-448q0-26 19-45t45-19h256q26 0 45 19t19 45v448h256q42 0 59 39z"/></symbol><symbol fill="currentColor" viewBox="0 0 1792 1792" id="leplayer-icon-edit"><title>edit</title><path d="M888 1184l116-116-152-152-116 116v56h96v96h56zm440-720q-16-16-33 1l-350 350q-17 17-1 33t33-1l350-350q17-17 1-33zm80 594v190q0 119-84.5 203.5t-203.5 84.5h-832q-119 0-203.5-84.5t-84.5-203.5v-832q0-119 84.5-203.5t203.5-84.5h832q63 0 117 25 15 7 18 23 3 17-9 29l-49 49q-14 14-32 8-23-6-45-6h-832q-66 0-113 47t-47 113v832q0 66 47 113t113 47h832q66 0 113-47t47-113v-126q0-13 9-22l64-64q15-15 35-7t20 29zm-96-738l288 288-672 672h-288v-288zm444 132l-92 92-288-288 92-92q28-28 68-28t68 28l152 152q28 28 28 68t-28 68z"/></symbol><symbol fill="currentColor" viewBox="0 0 1792 1792" id="leplayer-icon-forward"><title>forward</title><path d="M109 1651q-19 19-32 13t-13-32v-1472q0-26 13-32t32 13l710 710q8 8 13 19v-710q0-26 13-32t32 13l710 710q19 19 19 45t-19 45l-710 710q-19 19-32 13t-13-32v-710q-5 10-13 19z"/></symbol><symbol fill="currentColor" viewBox="0 0 1792 1792" id="leplayer-icon-info"><title>info</title><path d="M1216 1344v128q0 26-19 45t-45 19h-512q-26 0-45-19t-19-45v-128q0-26 19-45t45-19h64v-384h-64q-26 0-45-19t-19-45v-128q0-26 19-45t45-19h384q26 0 45 19t19 45v576h64q26 0 45 19t19 45zm-128-1152v192q0 26-19 45t-45 19h-256q-26 0-45-19t-19-45v-192q0-26 19-45t45-19h256q26 0 45 19t19 45z"/></symbol><symbol fill="currentColor" viewBox="0 0 1792 1792" id="leplayer-icon-list-ul"><title>list-ul</title><path d="M384 1408q0 80-56 136t-136 56-136-56-56-136 56-136 136-56 136 56 56 136zm0-512q0 80-56 136t-136 56-136-56-56-136 56-136 136-56 136 56 56 136zm1408 416v192q0 13-9.5 22.5t-22.5 9.5h-1216q-13 0-22.5-9.5t-9.5-22.5v-192q0-13 9.5-22.5t22.5-9.5h1216q13 0 22.5 9.5t9.5 22.5zm-1408-928q0 80-56 136t-136 56-136-56-56-136 56-136 136-56 136 56 56 136zm1408 416v192q0 13-9.5 22.5t-22.5 9.5h-1216q-13 0-22.5-9.5t-9.5-22.5v-192q0-13 9.5-22.5t22.5-9.5h1216q13 0 22.5 9.5t9.5 22.5zm0-512v192q0 13-9.5 22.5t-22.5 9.5h-1216q-13 0-22.5-9.5t-9.5-22.5v-192q0-13 9.5-22.5t22.5-9.5h1216q13 0 22.5 9.5t9.5 22.5z"/></symbol><symbol fill="currentColor" viewBox="0 0 1792 1792" id="leplayer-icon-magic"><title>magic</title><path d="M1254 581l293-293-107-107-293 293zm447-293q0 27-18 45l-1286 1286q-18 18-45 18t-45-18l-198-198q-18-18-18-45t18-45l1286-1286q18-18 45-18t45 18l198 198q18 18 18 45zm-1351-190l98 30-98 30-30 98-30-98-98-30 98-30 30-98zm350 162l196 60-196 60-60 196-60-196-196-60 196-60 60-196zm930 478l98 30-98 30-30 98-30-98-98-30 98-30 30-98zm-640-640l98 30-98 30-30 98-30-98-98-30 98-30 30-98z"/></symbol><symbol fill="currentColor" viewBox="0 0 1792 1792" id="leplayer-icon-pause"><title>pause</title><path d="M1664 192v1408q0 26-19 45t-45 19h-512q-26 0-45-19t-19-45v-1408q0-26 19-45t45-19h512q26 0 45 19t19 45zm-896 0v1408q0 26-19 45t-45 19h-512q-26 0-45-19t-19-45v-1408q0-26 19-45t45-19h512q26 0 45 19t19 45z"/></symbol><symbol fill="currentColor" viewBox="0 0 1792 1792" id="leplayer-icon-plane"><title>plane</title><path d="M1568 160q44 52 12 148t-108 172l-161 161 160 696q5 19-12 33l-128 96q-7 6-19 6-4 0-7-1-15-3-21-16l-279-508-259 259 53 194q5 17-8 31l-96 96q-9 9-23 9h-2q-15-2-24-13l-189-252-252-189q-11-7-13-23-1-13 9-25l96-97q9-9 23-9 6 0 8 1l194 53 259-259-508-279q-14-8-17-24-2-16 9-27l128-128q14-13 30-8l665 159 160-160q76-76 172-108t148 12z"/></symbol><symbol fill="currentColor" viewBox="0 0 1792 1792" id="leplayer-icon-play"><title>play</title><path d="M1576 927l-1328 738q-23 13-39.5 3t-16.5-36v-1472q0-26 16.5-36t39.5 3l1328 738q23 13 23 31t-23 31z"/></symbol><symbol fill="currentColor" viewBox="0 0 1792 1792" id="leplayer-icon-plus"><title>plus</title><path d="M1600 736v192q0 40-28 68t-68 28h-416v416q0 40-28 68t-68 28h-192q-40 0-68-28t-28-68v-416h-416q-40 0-68-28t-28-68v-192q0-40 28-68t68-28h416v-416q0-40 28-68t68-28h192q40 0 68 28t28 68v416h416q40 0 68 28t28 68z"/></symbol><symbol fill="currentColor" viewBox="0 0 1792 1792" id="leplayer-icon-redo"><title>redo</title><path d="M1664 256v448q0 26-19 45t-45 19h-448q-42 0-59-40-17-39 14-69l138-138q-148-137-349-137-104 0-198.5 40.5t-163.5 109.5-109.5 163.5-40.5 198.5 40.5 198.5 109.5 163.5 163.5 109.5 198.5 40.5q119 0 225-52t179-147q7-10 23-12 14 0 25 9l137 138q9 8 9.5 20.5t-7.5 22.5q-109 132-264 204.5t-327 72.5q-156 0-298-61t-245-164-164-245-61-298 61-298 164-245 245-164 298-61q147 0 284.5 55.5t244.5 156.5l130-129q29-31 70-14 39 17 39 59z"/></symbol><symbol fill="currentColor" viewBox="0 0 1792 1792" id="leplayer-icon-refresh"><title>refresh</title><path d="M1639 1056q0 5-1 7-64 268-268 434.5t-478 166.5q-146 0-282.5-55t-243.5-157l-129 129q-19 19-45 19t-45-19-19-45v-448q0-26 19-45t45-19h448q26 0 45 19t19 45-19 45l-137 137q71 66 161 102t187 36q134 0 250-65t186-179q11-17 53-117 8-23 30-23h192q13 0 22.5 9.5t9.5 22.5zm25-800v448q0 26-19 45t-45 19h-448q-26 0-45-19t-19-45 19-45l138-138q-148-137-349-137-134 0-250 65t-186 179q-11 17-53 117-8 23-30 23h-199q-13 0-22.5-9.5t-9.5-22.5v-7q65-268 270-434.5t480-166.5q146 0 284 55.5t245 156.5l130-129q19-19 45-19t45 19 19 45z"/></symbol><symbol fill="currentColor" viewBox="0 0 1792 1792" id="leplayer-icon-trash"><title>trash</title><path d="M704 1376v-704q0-14-9-23t-23-9h-64q-14 0-23 9t-9 23v704q0 14 9 23t23 9h64q14 0 23-9t9-23zm256 0v-704q0-14-9-23t-23-9h-64q-14 0-23 9t-9 23v704q0 14 9 23t23 9h64q14 0 23-9t9-23zm256 0v-704q0-14-9-23t-23-9h-64q-14 0-23 9t-9 23v704q0 14 9 23t23 9h64q14 0 23-9t9-23zm-544-992h448l-48-117q-7-9-17-11h-317q-10 2-17 11zm928 32v64q0 14-9 23t-23 9h-96v948q0 83-47 143.5t-113 60.5h-832q-66 0-113-58.5t-47-141.5v-952h-96q-14 0-23-9t-9-23v-64q0-14 9-23t23-9h309l70-167q15-37 54-63t79-26h320q40 0 79 26t54 63l70 167h309q14 0 23 9t9 23z"/></symbol><symbol fill="currentColor" viewBox="0 0 1792 1792" id="leplayer-icon-undo"><title>undo</title><path d="M1664 896q0 156-61 298t-164 245-245 164-298 61q-172 0-327-72.5t-264-204.5q-7-10-6.5-22.5t8.5-20.5l137-138q10-9 25-9 16 2 23 12 73 95 179 147t225 52q104 0 198.5-40.5t163.5-109.5 109.5-163.5 40.5-198.5-40.5-198.5-109.5-163.5-163.5-109.5-198.5-40.5q-98 0-188 35.5t-160 101.5l137 138q31 30 14 69-17 40-59 40h-448q-26 0-45-19t-19-45v-448q0-42 40-59 39-17 69 14l130 129q107-101 244.5-156.5t284.5-55.5q156 0 298 61t245 164 164 245 61 298z"/></symbol><symbol fill="currentColor" viewBox="0 0 1792 1792" id="leplayer-icon-volume-down"><title>volume-down</title><path d="M1088 352v1088q0 26-19 45t-45 19-45-19l-333-333h-262q-26 0-45-19t-19-45v-384q0-26 19-45t45-19h262l333-333q19-19 45-19t45 19 19 45zm384 544q0 76-42.5 141.5t-112.5 93.5q-10 5-25 5-26 0-45-18.5t-19-45.5q0-21 12-35.5t29-25 34-23 29-35.5 12-57-12-57-29-35.5-34-23-29-25-12-35.5q0-27 19-45.5t45-18.5q15 0 25 5 70 27 112.5 93t42.5 142z"/></symbol><symbol fill="currentColor" viewBox="0 0 1792 1792" id="leplayer-icon-volume-off"><title>volume-off</title><path d="M1280 352v1088q0 26-19 45t-45 19-45-19l-333-333h-262q-26 0-45-19t-19-45v-384q0-26 19-45t45-19h262l333-333q19-19 45-19t45 19 19 45z"/></symbol><symbol fill="currentColor" viewBox="0 0 1792 1792" id="leplayer-icon-volume-up"><title>volume-up</title><path d="M832 352v1088q0 26-19 45t-45 19-45-19l-333-333h-262q-26 0-45-19t-19-45v-384q0-26 19-45t45-19h262l333-333q19-19 45-19t45 19 19 45zm384 544q0 76-42.5 141.5t-112.5 93.5q-10 5-25 5-26 0-45-18.5t-19-45.5q0-21 12-35.5t29-25 34-23 29-35.5 12-57-12-57-29-35.5-34-23-29-25-12-35.5q0-27 19-45.5t45-18.5q15 0 25 5 70 27 112.5 93t42.5 142zm256 0q0 153-85 282.5t-225 188.5q-13 5-25 5-27 0-46-19t-19-45q0-39 39-59 56-29 76-44 74-54 115.5-135.5t41.5-173.5-41.5-173.5-115.5-135.5q-20-15-76-44-39-20-39-59 0-26 19-45t45-19q13 0 26 5 140 59 225 188.5t85 282.5zm256 0q0 230-127 422.5t-338 283.5q-13 5-26 5-26 0-45-19t-19-45q0-36 39-59 7-4 22.5-10.5t22.5-10.5q46-25 82-51 123-91 192-227t69-289-69-289-192-227q-36-26-82-51-7-4-22.5-10.5t-22.5-10.5q-39-23-39-59 0-26 19-45t45-19q13 0 26 5 211 91 338 283.5t127 422.5z"/></symbol></svg>